<?xml version="1.0" encoding="UTF-8"?>
<svg width="214px" height="64px" viewBox="0 0 214 64" version="1.1" xmlns="http://www.w3.org/2000/svg" xmlns:xlink="http://www.w3.org/1999/xlink">
    <!-- Generator: Sketch 46.2 (44496) - http://www.bohemiancoding.com/sketch -->
    <title>Logo</title>
    <desc>Created with Sketch.</desc>
    <defs></defs>
    <g id="Page-1" stroke="none" stroke-width="1" fill="none" fill-rule="evenodd">
        <g id="Desktop-HD-Copy-3" transform="translate(-90.000000, -63.000000)">
            <g id="hero" transform="translate(-765.000000, 0.000000)">
                <g id="Menu" transform="translate(855.000000, 62.000000)">
                    <g id="Logo">
                        <g id="Group-13" transform="translate(0.000000, 0.451000)">
                            <path d="M92.8777,36.868 C92.8777,38.672 93.9357,39.521 95.5227,39.627 C96.4747,39.627 97.6377,39.309 98.3787,38.778 L98.3787,44.615 C97.5327,45.039 95.9457,45.357 94.1467,45.357 C89.3867,45.357 86.3187,43.023 86.3187,37.717 L86.3187,26.468 L82.7227,26.468 L82.7227,21.163 L86.3187,21.163 L86.3187,14.689 L92.8777,14.689 L92.8777,21.163 L98.0607,21.163 L98.0607,26.468 L92.8777,26.468 L92.8777,36.868 Z" id="Fill-1" fill="#FFFFFF"></path>
                            <polygon id="Fill-3" fill="#FFFFFF" points="113.7173 44.8268 117.6313 30.2888 121.5453 44.8268 127.5753 44.8268 134.7683 21.1628 128.4213 21.1628 124.1903 36.2308 120.1703 21.1628 115.1983 21.1628 111.2843 36.2308 107.0533 21.1628 100.4943 21.1628 107.6873 44.8268"></polygon>
                            <polygon id="Fill-5" fill="#FFFFFF" points="138.259 44.933 144.818 44.933 144.818 21.163 138.259 21.163"></polygon>
                            <path d="M162.9072,30.8193 L158.0412,29.6523 C156.5602,29.2273 155.9252,28.6973 155.9252,27.7423 C155.9252,26.2563 157.5122,25.5133 159.0992,25.5133 C161.3202,25.5133 162.3782,26.5743 162.8012,27.8483 L169.0432,27.8483 C168.1962,23.3913 164.9172,20.5263 158.9932,20.5263 C153.7042,20.5263 149.5782,23.6033 149.5782,28.2723 C149.5782,32.3053 152.1172,34.1093 155.7142,34.9583 L160.4742,36.0193 C162.1672,36.4433 162.9072,36.9743 162.9072,38.0353 C162.9072,39.6273 161.5322,40.3703 159.5222,40.3703 C157.5122,40.3703 156.0312,39.4153 155.5022,37.7173 L148.9432,37.7173 C149.6842,42.5983 153.7042,45.3573 159.5222,45.3573 C165.0232,45.3573 169.2542,42.4923 169.2542,37.6113 C169.2542,34.1093 167.0332,31.7743 162.9072,30.8193" id="Fill-7" fill="#FFFFFF"></path>
                            <path d="M181.6311,36.868 L181.6311,26.468 L186.8141,26.468 L186.8141,21.163 L181.6311,21.163 L181.6311,14.689 L175.0721,14.689 L175.0721,21.163 L171.4761,21.163 L171.4761,26.468 L175.0721,26.468 L175.0721,37.717 C175.0721,43.023 178.1401,45.357 182.9001,45.357 C184.6991,45.357 186.2861,45.039 187.1321,44.615 L187.1321,38.778 C186.3911,39.309 185.2281,39.627 184.2761,39.627 C182.5831,39.521 181.6311,38.672 181.6311,36.868" id="Fill-8" fill="#FFFFFF"></path>
                            <path d="M201.2013,38.9904 C197.9223,38.9904 195.1713,36.2314 195.1713,32.9414 C195.1713,29.6524 197.9223,26.8934 201.2013,26.8934 C204.4803,26.8934 207.2313,29.6524 207.2313,32.9414 C207.2313,36.2314 204.4803,38.9904 201.2013,38.9904 M201.2013,20.6324 C194.3253,20.6324 188.8243,26.1504 188.8243,33.0474 C188.8243,39.9454 194.3253,45.4634 201.2013,45.4634 C208.0773,45.4634 213.5783,39.9454 213.5783,33.0474 C213.5783,26.1504 208.0773,20.6324 201.2013,20.6324" id="Fill-9" fill="#FFFFFF"></path>
                            <path d="M141.5387,11.3999 C143.3497,11.3999 144.8177,12.8729 144.8177,14.6899 C144.8177,16.5059 143.3497,17.9789 141.5387,17.9789 C139.7277,17.9789 138.2597,16.5059 138.2597,14.6899 C138.2597,12.8729 139.7277,11.3999 141.5387,11.3999" id="Fill-10" fill="#FFFFFF"></path>
                            <polygon id="Fill-11" fill="#FFFFFF" points="21.5788 21.7994 21.5788 64.2464 42.7358 64.2464 42.7358 0.5764 0.4218 0.5764 0.4218 21.7994"></polygon>
                            <path d="M42.7358,0.5759 C42.7358,12.3549 52.2568,21.7989 63.8928,21.7989 L63.8928,0.5759 L42.7358,0.5759 Z" id="Fill-12" fill="#009D4E"></path>
                        </g>
                        <path d="M42.736,1.027 C42.736,12.805 52.257,22.25 63.893,22.25 L63.893,22.25 L63.893,1.027 L42.736,1.027 Z" id="Fill-14"></path>
                    </g>
                </g>
            </g>
        </g>
    </g>
</svg>